<svg xmlns="http://www.w3.org/2000/svg" xmlns:xlink="http://www.w3.org/1999/xlink" width="500" zoomAndPan="magnify" viewBox="0 0 375 374.999991" height="500" preserveAspectRatio="xMidYMid meet" version="1.0"><defs><g/><clipPath id="9f30a0e2a2"><path d="M 135.273438 46 L 239.523438 46 L 239.523438 179 L 135.273438 179 Z M 135.273438 46 " clip-rule="nonzero"/></clipPath><clipPath id="b7b5379e63"><path d="M 159 37.5 L 194 37.5 L 194 82 L 159 82 Z M 159 37.5 " clip-rule="nonzero"/></clipPath></defs><g fill="#c72026" fill-opacity="1"><g transform="translate(0.0000045, 256.451637)"><g><path d="M 33.140625 -29.429688 C 33.140625 -21.382812 30.253906 -18.703125 25.441406 -18.703125 C 23.035156 -18.703125 21.933594 -20.078125 21.933594 -22.484375 C 21.933594 -27.710938 21.933594 -32.933594 21.933594 -34.449219 C 21.933594 -39.8125 23.585938 -41.1875 26.472656 -41.1875 C 30.871094 -40.910156 33.140625 -37.199219 33.140625 -29.429688 Z M 23.722656 -14.09375 C 38.847656 -14.507812 49.367188 -19.253906 49.367188 -29.429688 C 49.367188 -40.015625 37.953125 -45.449219 21.867188 -45.519531 C 18.632812 -45.519531 1.789062 -45.519531 1.375 -42.90625 C 0.960938 -40.15625 5.777344 -39.605469 5.777344 -34.449219 L 5.777344 -10.863281 C 5.777344 -5.707031 0.960938 -5.15625 1.375 -2.40625 C 1.789062 0 11.894531 0.207031 13.890625 0.207031 C 15.882812 0.207031 25.992188 0.136719 26.265625 -2.40625 C 26.472656 -5.226562 21.933594 -5.5 21.933594 -10.863281 C 21.933594 -11.277344 21.933594 -11.964844 21.933594 -12.925781 C 22.003906 -13.957031 23.101562 -14.09375 23.722656 -14.09375 Z M 23.722656 -14.09375 "/></g></g></g><g fill="#c72026" fill-opacity="1"><g transform="translate(49.018477, 256.451637)"><g><path d="M 21.933594 -10.863281 C 21.933594 -13.820312 21.933594 -31.355469 21.933594 -34.378906 C 21.933594 -39.671875 26.472656 -39.949219 26.265625 -42.769531 C 25.992188 -45.378906 15.882812 -45.449219 13.890625 -45.449219 C 11.894531 -45.449219 1.789062 -45.175781 1.375 -42.769531 C 0.960938 -40.085938 5.777344 -39.535156 5.777344 -34.378906 L 5.777344 -10.863281 C 5.777344 -5.707031 0.960938 -5.15625 1.375 -2.40625 C 1.789062 0 11.894531 0.207031 13.890625 0.207031 C 15.882812 0.207031 25.992188 0.136719 26.265625 -2.40625 C 26.472656 -5.226562 21.933594 -5.5 21.933594 -10.863281 Z M 21.933594 -10.863281 "/></g></g></g><g fill="#c72026" fill-opacity="1"><g transform="translate(75.280703, 256.451637)"><g><path d="M 42.769531 -19.113281 C 42.699219 -19.113281 42.628906 -19.113281 42.5625 -19.113281 C 39.46875 -19.113281 36.71875 -3.917969 30.804688 -3.917969 C 30.804688 -3.917969 25.921875 -3.851562 23.242188 -3.78125 C 22.070312 -3.78125 21.382812 -5.019531 21.933594 -5.980469 C 27.226562 -14.4375 38.160156 -31.558594 44.074219 -41.394531 C 45.175781 -43.179688 43.867188 -45.378906 41.738281 -45.378906 C 36.71875 -45.449219 27.710938 -45.449219 20.144531 -45.449219 C 13.820312 -45.449219 8.457031 -45.449219 7.082031 -45.3125 C 4.058594 -45.035156 3.371094 -40.015625 3.09375 -36.921875 C 2.820312 -34.105469 2.613281 -26.609375 5.433594 -26.058594 C 5.5 -26.058594 5.570312 -26.058594 5.636719 -26.058594 C 8.664062 -26.058594 10.65625 -41.53125 16.640625 -41.53125 C 16.640625 -41.53125 19.734375 -41.53125 22.414062 -41.460938 C 23.585938 -41.460938 24.339844 -40.222656 23.722656 -39.261719 L 1.101562 -3.78125 C 0 -2.0625 1.304688 0.207031 3.371094 0.207031 C 14.921875 0.273438 26.472656 0.34375 38.023438 0.34375 C 38.78125 0.34375 39.191406 0.273438 40.84375 0.136719 C 44.488281 -0.207031 45.105469 -8.9375 45.105469 -12.238281 L 45.105469 -12.445312 C 45.105469 -15.402344 44.691406 -18.769531 42.769531 -19.113281 Z M 42.769531 -19.113281 "/></g></g></g><g fill="#c72026" fill-opacity="1"><g transform="translate(119.69293, 256.451637)"><g><path d="M 42.769531 -19.113281 C 42.699219 -19.113281 42.628906 -19.113281 42.5625 -19.113281 C 39.46875 -19.113281 36.71875 -3.917969 30.804688 -3.917969 C 30.804688 -3.917969 25.921875 -3.851562 23.242188 -3.78125 C 22.070312 -3.78125 21.382812 -5.019531 21.933594 -5.980469 C 27.226562 -14.4375 38.160156 -31.558594 44.074219 -41.394531 C 45.175781 -43.179688 43.867188 -45.378906 41.738281 -45.378906 C 36.71875 -45.449219 27.710938 -45.449219 20.144531 -45.449219 C 13.820312 -45.449219 8.457031 -45.449219 7.082031 -45.3125 C 4.058594 -45.035156 3.371094 -40.015625 3.09375 -36.921875 C 2.820312 -34.105469 2.613281 -26.609375 5.433594 -26.058594 C 5.5 -26.058594 5.570312 -26.058594 5.636719 -26.058594 C 8.664062 -26.058594 10.65625 -41.53125 16.640625 -41.53125 C 16.640625 -41.53125 19.734375 -41.53125 22.414062 -41.460938 C 23.585938 -41.460938 24.339844 -40.222656 23.722656 -39.261719 L 1.101562 -3.78125 C 0 -2.0625 1.304688 0.207031 3.371094 0.207031 C 14.921875 0.273438 26.472656 0.34375 38.023438 0.34375 C 38.78125 0.34375 39.191406 0.273438 40.84375 0.136719 C 44.488281 -0.207031 45.105469 -8.9375 45.105469 -12.238281 L 45.105469 -12.445312 C 45.105469 -15.402344 44.691406 -18.769531 42.769531 -19.113281 Z M 42.769531 -19.113281 "/></g></g></g><g fill="#c72026" fill-opacity="1"><g transform="translate(164.105164, 256.451637)"><g><path d="M 15.609375 -16.296875 C 17.535156 -21.039062 20.351562 -27.917969 22.140625 -32.316406 L 22.964844 -30.390625 C 23.101562 -29.980469 23.308594 -29.636719 23.445312 -29.222656 L 29.152344 -16.296875 Z M 47.511719 -11.277344 C 46.894531 -12.652344 37.472656 -35.136719 37.472656 -35.136719 C 35.273438 -40.5 34.449219 -45.929688 25.714844 -46.617188 C 25.441406 -46.617188 25.027344 -46.6875 24.546875 -46.6875 C 22.003906 -46.6875 17.535156 -46.207031 16.847656 -43.867188 C 16.433594 -42.285156 17.394531 -41.324219 18.769531 -39.191406 L 7.5625 -11.414062 C 5.433594 -6.050781 0.6875 -5.5 0.6875 -2.613281 C 0.6875 -0.414062 5.363281 0.136719 7.355469 0.207031 C 9.421875 0.207031 16.019531 0.207031 16.296875 -2.476562 C 16.640625 -5.363281 11.484375 -5.777344 13.613281 -11.414062 L 13.820312 -11.964844 L 31.078125 -11.964844 L 31.355469 -11.277344 C 33.554688 -5.914062 28.671875 -4.949219 29.359375 -2.542969 C 30.046875 0.136719 39.949219 0.207031 42.628906 0.207031 C 44.96875 0.207031 53.496094 0.207031 54.183594 -2.542969 C 55.007812 -5.914062 49.78125 -5.707031 47.511719 -11.277344 Z M 47.511719 -11.277344 "/></g></g></g><g fill="#c72026" fill-opacity="1"><g transform="translate(217.661146, 256.451637)"><g><path d="M 44.96875 -45.449219 C 42.972656 -45.449219 36.304688 -45.449219 36.03125 -43.523438 C 35.753906 -41.460938 41.050781 -41.050781 38.78125 -37.0625 C 37.953125 -35.617188 34.171875 -28.878906 31.492188 -24.203125 L 23.585938 -37.128906 C 21.382812 -40.980469 26.265625 -41.738281 25.578125 -43.457031 C 24.820312 -45.449219 14.027344 -45.449219 12.03125 -45.449219 C 9.96875 -45.449219 1.445312 -45.449219 0.757812 -43.457031 C 0 -40.980469 5.15625 -41.117188 7.425781 -37.128906 C 8.042969 -36.03125 14.027344 -25.921875 18.222656 -18.703125 L 18.222656 -10.863281 C 18.222656 -5.707031 13.339844 -5.15625 13.820312 -2.40625 C 14.234375 0 24.273438 0.207031 26.265625 0.207031 C 28.261719 0.207031 38.4375 0.136719 38.640625 -2.40625 C 38.847656 -5.226562 34.378906 -5.5 34.378906 -10.863281 C 34.378906 -11.964844 34.378906 -14.921875 34.378906 -18.425781 L 44.761719 -37.0625 C 46.960938 -40.910156 51.636719 -41.324219 51.636719 -43.457031 C 51.707031 -45.035156 46.960938 -45.449219 44.96875 -45.449219 Z M 44.96875 -45.449219 "/></g></g></g><g fill="#c72026" fill-opacity="1"><g transform="translate(268.604618, 256.451637)"><g><path d="M 44.96875 -45.449219 C 42.972656 -45.449219 36.304688 -45.449219 36.03125 -43.523438 C 35.753906 -41.460938 41.050781 -41.050781 38.78125 -37.0625 C 37.953125 -35.617188 34.171875 -28.878906 31.492188 -24.203125 L 23.585938 -37.128906 C 21.382812 -40.980469 26.265625 -41.738281 25.578125 -43.457031 C 24.820312 -45.449219 14.027344 -45.449219 12.03125 -45.449219 C 9.96875 -45.449219 1.445312 -45.449219 0.757812 -43.457031 C 0 -40.980469 5.15625 -41.117188 7.425781 -37.128906 C 8.042969 -36.03125 14.027344 -25.921875 18.222656 -18.703125 L 18.222656 -10.863281 C 18.222656 -5.707031 13.339844 -5.15625 13.820312 -2.40625 C 14.234375 0 24.273438 0.207031 26.265625 0.207031 C 28.261719 0.207031 38.4375 0.136719 38.640625 -2.40625 C 38.847656 -5.226562 34.378906 -5.5 34.378906 -10.863281 C 34.378906 -11.964844 34.378906 -14.921875 34.378906 -18.425781 L 44.761719 -37.0625 C 46.960938 -40.910156 51.636719 -41.324219 51.636719 -43.457031 C 51.707031 -45.035156 46.960938 -45.449219 44.96875 -45.449219 Z M 44.96875 -45.449219 "/></g></g></g><g fill="#c72026" fill-opacity="1"><g transform="translate(319.548074, 256.451637)"><g><path d="M 15.609375 -16.296875 C 17.535156 -21.039062 20.351562 -27.917969 22.140625 -32.316406 L 22.964844 -30.390625 C 23.101562 -29.980469 23.308594 -29.636719 23.445312 -29.222656 L 29.152344 -16.296875 Z M 47.511719 -11.277344 C 46.894531 -12.652344 37.472656 -35.136719 37.472656 -35.136719 C 35.273438 -40.5 34.449219 -45.929688 25.714844 -46.617188 C 25.441406 -46.617188 25.027344 -46.6875 24.546875 -46.6875 C 22.003906 -46.6875 17.535156 -46.207031 16.847656 -43.867188 C 16.433594 -42.285156 17.394531 -41.324219 18.769531 -39.191406 L 7.5625 -11.414062 C 5.433594 -6.050781 0.6875 -5.5 0.6875 -2.613281 C 0.6875 -0.414062 5.363281 0.136719 7.355469 0.207031 C 9.421875 0.207031 16.019531 0.207031 16.296875 -2.476562 C 16.640625 -5.363281 11.484375 -5.777344 13.613281 -11.414062 L 13.820312 -11.964844 L 31.078125 -11.964844 L 31.355469 -11.277344 C 33.554688 -5.914062 28.671875 -4.949219 29.359375 -2.542969 C 30.046875 0.136719 39.949219 0.207031 42.628906 0.207031 C 44.96875 0.207031 53.496094 0.207031 54.183594 -2.542969 C 55.007812 -5.914062 49.78125 -5.707031 47.511719 -11.277344 Z M 47.511719 -11.277344 "/></g></g></g><g fill="#000000" fill-opacity="1"><g transform="translate(104.479616, 286.820607)"><g><path d="M 5.78125 0.171875 C 4.644531 0.171875 3.695312 0.0078125 2.9375 -0.3125 C 2.175781 -0.644531 1.597656 -1.078125 1.203125 -1.609375 C 0.816406 -2.140625 0.609375 -2.707031 0.578125 -3.3125 C 0.578125 -3.414062 0.613281 -3.503906 0.6875 -3.578125 C 0.757812 -3.648438 0.847656 -3.6875 0.953125 -3.6875 L 2.875 -3.6875 C 3.019531 -3.6875 3.132812 -3.65625 3.21875 -3.59375 C 3.300781 -3.539062 3.378906 -3.460938 3.453125 -3.359375 C 3.535156 -3.148438 3.664062 -2.953125 3.84375 -2.765625 C 4.03125 -2.578125 4.28125 -2.421875 4.59375 -2.296875 C 4.90625 -2.179688 5.300781 -2.125 5.78125 -2.125 C 6.539062 -2.125 7.113281 -2.25 7.5 -2.5 C 7.882812 -2.75 8.078125 -3.085938 8.078125 -3.515625 C 8.078125 -3.804688 7.972656 -4.046875 7.765625 -4.234375 C 7.554688 -4.421875 7.226562 -4.59375 6.78125 -4.75 C 6.34375 -4.90625 5.757812 -5.066406 5.03125 -5.234375 C 4.144531 -5.429688 3.390625 -5.679688 2.765625 -5.984375 C 2.148438 -6.285156 1.6875 -6.671875 1.375 -7.140625 C 1.0625 -7.617188 0.90625 -8.21875 0.90625 -8.9375 C 0.90625 -9.644531 1.097656 -10.269531 1.484375 -10.8125 C 1.878906 -11.363281 2.429688 -11.796875 3.140625 -12.109375 C 3.847656 -12.421875 4.691406 -12.578125 5.671875 -12.578125 C 6.460938 -12.578125 7.160156 -12.46875 7.765625 -12.25 C 8.378906 -12.039062 8.890625 -11.765625 9.296875 -11.421875 C 9.703125 -11.085938 10.007812 -10.722656 10.21875 -10.328125 C 10.4375 -9.941406 10.550781 -9.566406 10.5625 -9.203125 C 10.5625 -9.085938 10.523438 -8.992188 10.453125 -8.921875 C 10.390625 -8.847656 10.300781 -8.8125 10.1875 -8.8125 L 8.203125 -8.8125 C 8.085938 -8.8125 7.984375 -8.832031 7.890625 -8.875 C 7.796875 -8.925781 7.710938 -9.007812 7.640625 -9.125 C 7.578125 -9.445312 7.367188 -9.71875 7.015625 -9.9375 C 6.671875 -10.164062 6.222656 -10.28125 5.671875 -10.28125 C 5.085938 -10.28125 4.628906 -10.175781 4.296875 -9.96875 C 3.960938 -9.757812 3.796875 -9.4375 3.796875 -9 C 3.796875 -8.71875 3.882812 -8.476562 4.0625 -8.28125 C 4.238281 -8.082031 4.523438 -7.910156 4.921875 -7.765625 C 5.328125 -7.617188 5.875 -7.460938 6.5625 -7.296875 C 7.582031 -7.085938 8.414062 -6.832031 9.0625 -6.53125 C 9.71875 -6.226562 10.195312 -5.84375 10.5 -5.375 C 10.8125 -4.90625 10.96875 -4.316406 10.96875 -3.609375 C 10.96875 -2.816406 10.75 -2.132812 10.3125 -1.5625 C 9.875 -1 9.265625 -0.566406 8.484375 -0.265625 C 7.703125 0.0234375 6.800781 0.171875 5.78125 0.171875 Z M 5.78125 0.171875 "/></g></g></g><g fill="#000000" fill-opacity="1"><g transform="translate(118.68604, 286.820607)"><g><path d="M 0.578125 0 C 0.472656 0 0.382812 -0.0351562 0.3125 -0.109375 C 0.25 -0.191406 0.21875 -0.28125 0.21875 -0.375 C 0.21875 -0.425781 0.222656 -0.476562 0.234375 -0.53125 L 4.453125 -11.921875 C 4.484375 -12.054688 4.550781 -12.171875 4.65625 -12.265625 C 4.757812 -12.359375 4.910156 -12.40625 5.109375 -12.40625 L 7.375 -12.40625 C 7.5625 -12.40625 7.707031 -12.359375 7.8125 -12.265625 C 7.914062 -12.171875 7.992188 -12.054688 8.046875 -11.921875 L 12.25 -0.53125 C 12.269531 -0.476562 12.28125 -0.425781 12.28125 -0.375 C 12.28125 -0.28125 12.238281 -0.191406 12.15625 -0.109375 C 12.082031 -0.0351562 11.992188 0 11.890625 0 L 10.03125 0 C 9.863281 0 9.738281 -0.0390625 9.65625 -0.125 C 9.570312 -0.207031 9.519531 -0.285156 9.5 -0.359375 L 8.734375 -2.34375 L 3.734375 -2.34375 L 3 -0.359375 C 2.957031 -0.285156 2.898438 -0.207031 2.828125 -0.125 C 2.753906 -0.0390625 2.625 0 2.4375 0 Z M 4.40625 -4.625 L 8.0625 -4.625 L 6.234375 -9.703125 Z M 4.40625 -4.625 "/></g></g></g><g fill="#000000" fill-opacity="1"><g transform="translate(133.813587, 286.820607)"><g><path d="M 1.734375 0 C 1.617188 0 1.519531 -0.0390625 1.4375 -0.125 C 1.351562 -0.207031 1.3125 -0.3125 1.3125 -0.4375 L 1.3125 -11.953125 C 1.3125 -12.085938 1.351562 -12.195312 1.4375 -12.28125 C 1.519531 -12.363281 1.617188 -12.40625 1.734375 -12.40625 L 7.015625 -12.40625 C 7.992188 -12.40625 8.800781 -12.257812 9.4375 -11.96875 C 10.070312 -11.6875 10.535156 -11.285156 10.828125 -10.765625 C 11.117188 -10.253906 11.265625 -9.648438 11.265625 -8.953125 C 11.265625 -8.515625 11.1875 -8.128906 11.03125 -7.796875 C 10.875 -7.460938 10.675781 -7.1875 10.4375 -6.96875 C 10.207031 -6.757812 9.988281 -6.601562 9.78125 -6.5 C 10.238281 -6.289062 10.644531 -5.941406 11 -5.453125 C 11.351562 -4.960938 11.53125 -4.378906 11.53125 -3.703125 C 11.53125 -2.960938 11.363281 -2.3125 11.03125 -1.75 C 10.695312 -1.195312 10.203125 -0.765625 9.546875 -0.453125 C 8.898438 -0.148438 8.109375 0 7.171875 0 Z M 4.125 -2.09375 L 6.84375 -2.09375 C 7.414062 -2.09375 7.847656 -2.253906 8.140625 -2.578125 C 8.441406 -2.898438 8.59375 -3.28125 8.59375 -3.71875 C 8.59375 -4.175781 8.441406 -4.5625 8.140625 -4.875 C 7.835938 -5.1875 7.40625 -5.34375 6.84375 -5.34375 L 4.125 -5.34375 Z M 4.125 -7.390625 L 6.6875 -7.390625 C 7.238281 -7.390625 7.648438 -7.523438 7.921875 -7.796875 C 8.203125 -8.078125 8.34375 -8.4375 8.34375 -8.875 C 8.34375 -9.3125 8.203125 -9.660156 7.921875 -9.921875 C 7.648438 -10.179688 7.238281 -10.3125 6.6875 -10.3125 L 4.125 -10.3125 Z M 4.125 -7.390625 "/></g></g></g><g fill="#000000" fill-opacity="1"><g transform="translate(148.78171, 286.820607)"><g><path d="M 6.234375 0.171875 C 5.160156 0.171875 4.234375 -0.00390625 3.453125 -0.359375 C 2.671875 -0.710938 2.0625 -1.242188 1.625 -1.953125 C 1.1875 -2.671875 0.953125 -3.570312 0.921875 -4.65625 C 0.910156 -5.164062 0.90625 -5.671875 0.90625 -6.171875 C 0.90625 -6.671875 0.910156 -7.179688 0.921875 -7.703125 C 0.953125 -8.765625 1.1875 -9.660156 1.625 -10.390625 C 2.070312 -11.117188 2.6875 -11.664062 3.46875 -12.03125 C 4.257812 -12.394531 5.179688 -12.578125 6.234375 -12.578125 C 7.273438 -12.578125 8.1875 -12.394531 8.96875 -12.03125 C 9.757812 -11.664062 10.378906 -11.117188 10.828125 -10.390625 C 11.273438 -9.660156 11.515625 -8.765625 11.546875 -7.703125 C 11.578125 -7.179688 11.59375 -6.671875 11.59375 -6.171875 C 11.59375 -5.671875 11.578125 -5.164062 11.546875 -4.65625 C 11.515625 -3.570312 11.273438 -2.671875 10.828125 -1.953125 C 10.390625 -1.242188 9.78125 -0.710938 9 -0.359375 C 8.21875 -0.00390625 7.296875 0.171875 6.234375 0.171875 Z M 6.234375 -2.125 C 6.921875 -2.125 7.484375 -2.328125 7.921875 -2.734375 C 8.367188 -3.148438 8.601562 -3.820312 8.625 -4.75 C 8.65625 -5.269531 8.671875 -5.753906 8.671875 -6.203125 C 8.671875 -6.660156 8.65625 -7.144531 8.625 -7.65625 C 8.613281 -8.269531 8.5 -8.769531 8.28125 -9.15625 C 8.070312 -9.550781 7.789062 -9.835938 7.4375 -10.015625 C 7.09375 -10.191406 6.691406 -10.28125 6.234375 -10.28125 C 5.785156 -10.28125 5.382812 -10.191406 5.03125 -10.015625 C 4.675781 -9.835938 4.390625 -9.550781 4.171875 -9.15625 C 3.960938 -8.769531 3.847656 -8.269531 3.828125 -7.65625 C 3.816406 -7.144531 3.8125 -6.660156 3.8125 -6.203125 C 3.8125 -5.753906 3.816406 -5.269531 3.828125 -4.75 C 3.859375 -3.820312 4.09375 -3.148438 4.53125 -2.734375 C 4.96875 -2.328125 5.535156 -2.125 6.234375 -2.125 Z M 6.234375 -2.125 "/></g></g></g><g fill="#000000" fill-opacity="1"><g transform="translate(163.891551, 286.820607)"><g><path d="M 1.734375 0 C 1.617188 0 1.519531 -0.0390625 1.4375 -0.125 C 1.351562 -0.207031 1.3125 -0.3125 1.3125 -0.4375 L 1.3125 -11.953125 C 1.3125 -12.085938 1.351562 -12.195312 1.4375 -12.28125 C 1.519531 -12.363281 1.617188 -12.40625 1.734375 -12.40625 L 6.453125 -12.40625 C 7.929688 -12.40625 9.09375 -12.0625 9.9375 -11.375 C 10.789062 -10.695312 11.21875 -9.722656 11.21875 -8.453125 C 11.21875 -7.585938 11.007812 -6.863281 10.59375 -6.28125 C 10.175781 -5.707031 9.625 -5.28125 8.9375 -5 L 11.453125 -0.5625 C 11.484375 -0.488281 11.5 -0.425781 11.5 -0.375 C 11.5 -0.28125 11.457031 -0.191406 11.375 -0.109375 C 11.300781 -0.0351562 11.21875 0 11.125 0 L 9.140625 0 C 8.929688 0 8.769531 -0.0546875 8.65625 -0.171875 C 8.550781 -0.285156 8.476562 -0.390625 8.4375 -0.484375 L 6.265625 -4.53125 L 4.125 -4.53125 L 4.125 -0.4375 C 4.125 -0.3125 4.082031 -0.207031 4 -0.125 C 3.914062 -0.0390625 3.8125 0 3.6875 0 Z M 4.125 -6.78125 L 6.421875 -6.78125 C 7.054688 -6.78125 7.53125 -6.925781 7.84375 -7.21875 C 8.15625 -7.519531 8.3125 -7.9375 8.3125 -8.46875 C 8.3125 -9 8.15625 -9.414062 7.84375 -9.71875 C 7.539062 -10.03125 7.066406 -10.1875 6.421875 -10.1875 L 4.125 -10.1875 Z M 4.125 -6.78125 "/></g></g></g><g fill="#000000" fill-opacity="1"><g transform="translate(178.629385, 286.820607)"><g/></g></g><g fill="#000000" fill-opacity="1"><g transform="translate(185.201184, 286.820607)"><g><path d="M 6.234375 0.171875 C 5.140625 0.171875 4.203125 -0.0078125 3.421875 -0.375 C 2.640625 -0.75 2.035156 -1.289062 1.609375 -2 C 1.179688 -2.71875 0.945312 -3.59375 0.90625 -4.625 C 0.894531 -5.101562 0.890625 -5.617188 0.890625 -6.171875 C 0.890625 -6.734375 0.894531 -7.269531 0.90625 -7.78125 C 0.945312 -8.789062 1.179688 -9.65625 1.609375 -10.375 C 2.046875 -11.09375 2.65625 -11.640625 3.4375 -12.015625 C 4.21875 -12.390625 5.148438 -12.578125 6.234375 -12.578125 C 7.035156 -12.578125 7.757812 -12.476562 8.40625 -12.28125 C 9.050781 -12.082031 9.609375 -11.789062 10.078125 -11.40625 C 10.554688 -11.03125 10.925781 -10.585938 11.1875 -10.078125 C 11.457031 -9.566406 11.597656 -9 11.609375 -8.375 C 11.617188 -8.269531 11.582031 -8.179688 11.5 -8.109375 C 11.425781 -8.046875 11.335938 -8.015625 11.234375 -8.015625 L 9.203125 -8.015625 C 9.054688 -8.015625 8.941406 -8.046875 8.859375 -8.109375 C 8.773438 -8.171875 8.710938 -8.285156 8.671875 -8.453125 C 8.492188 -9.160156 8.195312 -9.640625 7.78125 -9.890625 C 7.363281 -10.148438 6.847656 -10.28125 6.234375 -10.28125 C 5.515625 -10.28125 4.941406 -10.078125 4.515625 -9.671875 C 4.085938 -9.273438 3.859375 -8.613281 3.828125 -7.6875 C 3.796875 -6.71875 3.796875 -5.726562 3.828125 -4.71875 C 3.859375 -3.789062 4.085938 -3.125 4.515625 -2.71875 C 4.941406 -2.320312 5.515625 -2.125 6.234375 -2.125 C 6.847656 -2.125 7.363281 -2.253906 7.78125 -2.515625 C 8.207031 -2.773438 8.503906 -3.253906 8.671875 -3.953125 C 8.710938 -4.117188 8.773438 -4.234375 8.859375 -4.296875 C 8.941406 -4.359375 9.054688 -4.390625 9.203125 -4.390625 L 11.234375 -4.390625 C 11.335938 -4.390625 11.425781 -4.351562 11.5 -4.28125 C 11.582031 -4.21875 11.617188 -4.128906 11.609375 -4.015625 C 11.597656 -3.390625 11.457031 -2.820312 11.1875 -2.3125 C 10.925781 -1.8125 10.554688 -1.367188 10.078125 -0.984375 C 9.609375 -0.609375 9.050781 -0.320312 8.40625 -0.125 C 7.757812 0.0703125 7.035156 0.171875 6.234375 0.171875 Z M 6.234375 0.171875 "/></g></g></g><g fill="#000000" fill-opacity="1"><g transform="translate(200.133873, 286.820607)"><g><path d="M 0.578125 0 C 0.472656 0 0.382812 -0.0351562 0.3125 -0.109375 C 0.25 -0.191406 0.21875 -0.28125 0.21875 -0.375 C 0.21875 -0.425781 0.222656 -0.476562 0.234375 -0.53125 L 4.453125 -11.921875 C 4.484375 -12.054688 4.550781 -12.171875 4.65625 -12.265625 C 4.757812 -12.359375 4.910156 -12.40625 5.109375 -12.40625 L 7.375 -12.40625 C 7.5625 -12.40625 7.707031 -12.359375 7.8125 -12.265625 C 7.914062 -12.171875 7.992188 -12.054688 8.046875 -11.921875 L 12.25 -0.53125 C 12.269531 -0.476562 12.28125 -0.425781 12.28125 -0.375 C 12.28125 -0.28125 12.238281 -0.191406 12.15625 -0.109375 C 12.082031 -0.0351562 11.992188 0 11.890625 0 L 10.03125 0 C 9.863281 0 9.738281 -0.0390625 9.65625 -0.125 C 9.570312 -0.207031 9.519531 -0.285156 9.5 -0.359375 L 8.734375 -2.34375 L 3.734375 -2.34375 L 3 -0.359375 C 2.957031 -0.285156 2.898438 -0.207031 2.828125 -0.125 C 2.753906 -0.0390625 2.625 0 2.4375 0 Z M 4.40625 -4.625 L 8.0625 -4.625 L 6.234375 -9.703125 Z M 4.40625 -4.625 "/></g></g></g><g fill="#000000" fill-opacity="1"><g transform="translate(215.261424, 286.820607)"><g><path d="M 5.78125 0.171875 C 4.644531 0.171875 3.695312 0.0078125 2.9375 -0.3125 C 2.175781 -0.644531 1.597656 -1.078125 1.203125 -1.609375 C 0.816406 -2.140625 0.609375 -2.707031 0.578125 -3.3125 C 0.578125 -3.414062 0.613281 -3.503906 0.6875 -3.578125 C 0.757812 -3.648438 0.847656 -3.6875 0.953125 -3.6875 L 2.875 -3.6875 C 3.019531 -3.6875 3.132812 -3.65625 3.21875 -3.59375 C 3.300781 -3.539062 3.378906 -3.460938 3.453125 -3.359375 C 3.535156 -3.148438 3.664062 -2.953125 3.84375 -2.765625 C 4.03125 -2.578125 4.28125 -2.421875 4.59375 -2.296875 C 4.90625 -2.179688 5.300781 -2.125 5.78125 -2.125 C 6.539062 -2.125 7.113281 -2.25 7.5 -2.5 C 7.882812 -2.75 8.078125 -3.085938 8.078125 -3.515625 C 8.078125 -3.804688 7.972656 -4.046875 7.765625 -4.234375 C 7.554688 -4.421875 7.226562 -4.59375 6.78125 -4.75 C 6.34375 -4.90625 5.757812 -5.066406 5.03125 -5.234375 C 4.144531 -5.429688 3.390625 -5.679688 2.765625 -5.984375 C 2.148438 -6.285156 1.6875 -6.671875 1.375 -7.140625 C 1.0625 -7.617188 0.90625 -8.21875 0.90625 -8.9375 C 0.90625 -9.644531 1.097656 -10.269531 1.484375 -10.8125 C 1.878906 -11.363281 2.429688 -11.796875 3.140625 -12.109375 C 3.847656 -12.421875 4.691406 -12.578125 5.671875 -12.578125 C 6.460938 -12.578125 7.160156 -12.46875 7.765625 -12.25 C 8.378906 -12.039062 8.890625 -11.765625 9.296875 -11.421875 C 9.703125 -11.085938 10.007812 -10.722656 10.21875 -10.328125 C 10.4375 -9.941406 10.550781 -9.566406 10.5625 -9.203125 C 10.5625 -9.085938 10.523438 -8.992188 10.453125 -8.921875 C 10.390625 -8.847656 10.300781 -8.8125 10.1875 -8.8125 L 8.203125 -8.8125 C 8.085938 -8.8125 7.984375 -8.832031 7.890625 -8.875 C 7.796875 -8.925781 7.710938 -9.007812 7.640625 -9.125 C 7.578125 -9.445312 7.367188 -9.71875 7.015625 -9.9375 C 6.671875 -10.164062 6.222656 -10.28125 5.671875 -10.28125 C 5.085938 -10.28125 4.628906 -10.175781 4.296875 -9.96875 C 3.960938 -9.757812 3.796875 -9.4375 3.796875 -9 C 3.796875 -8.71875 3.882812 -8.476562 4.0625 -8.28125 C 4.238281 -8.082031 4.523438 -7.910156 4.921875 -7.765625 C 5.328125 -7.617188 5.875 -7.460938 6.5625 -7.296875 C 7.582031 -7.085938 8.414062 -6.832031 9.0625 -6.53125 C 9.71875 -6.226562 10.195312 -5.84375 10.5 -5.375 C 10.8125 -4.90625 10.96875 -4.316406 10.96875 -3.609375 C 10.96875 -2.816406 10.75 -2.132812 10.3125 -1.5625 C 9.875 -1 9.265625 -0.566406 8.484375 -0.265625 C 7.703125 0.0234375 6.800781 0.171875 5.78125 0.171875 Z M 5.78125 0.171875 "/></g></g></g><g fill="#000000" fill-opacity="1"><g transform="translate(229.467853, 286.820607)"><g><path d="M 1.734375 0 C 1.617188 0 1.519531 -0.0390625 1.4375 -0.125 C 1.351562 -0.207031 1.3125 -0.3125 1.3125 -0.4375 L 1.3125 -11.953125 C 1.3125 -12.085938 1.351562 -12.195312 1.4375 -12.28125 C 1.519531 -12.363281 1.617188 -12.40625 1.734375 -12.40625 L 9.78125 -12.40625 C 9.90625 -12.40625 10.007812 -12.363281 10.09375 -12.28125 C 10.175781 -12.195312 10.21875 -12.085938 10.21875 -11.953125 L 10.21875 -10.546875 C 10.21875 -10.410156 10.175781 -10.300781 10.09375 -10.21875 C 10.007812 -10.132812 9.90625 -10.09375 9.78125 -10.09375 L 4.046875 -10.09375 L 4.046875 -7.328125 L 9.390625 -7.328125 C 9.515625 -7.328125 9.617188 -7.285156 9.703125 -7.203125 C 9.785156 -7.128906 9.828125 -7.023438 9.828125 -6.890625 L 9.828125 -5.578125 C 9.828125 -5.460938 9.785156 -5.359375 9.703125 -5.265625 C 9.617188 -5.179688 9.515625 -5.140625 9.390625 -5.140625 L 4.046875 -5.140625 L 4.046875 -2.296875 L 9.921875 -2.296875 C 10.054688 -2.296875 10.160156 -2.253906 10.234375 -2.171875 C 10.316406 -2.097656 10.359375 -1.992188 10.359375 -1.859375 L 10.359375 -0.4375 C 10.359375 -0.3125 10.316406 -0.207031 10.234375 -0.125 C 10.160156 -0.0390625 10.054688 0 9.921875 0 Z M 1.734375 0 "/></g></g></g><g fill="#000000" fill-opacity="1"><g transform="translate(243.302297, 286.820607)"><g><path d="M 1.734375 0 C 1.617188 0 1.519531 -0.0390625 1.4375 -0.125 C 1.351562 -0.207031 1.3125 -0.3125 1.3125 -0.4375 L 1.3125 -11.953125 C 1.3125 -12.085938 1.351562 -12.195312 1.4375 -12.28125 C 1.519531 -12.363281 1.617188 -12.40625 1.734375 -12.40625 L 6.453125 -12.40625 C 7.929688 -12.40625 9.09375 -12.0625 9.9375 -11.375 C 10.789062 -10.695312 11.21875 -9.722656 11.21875 -8.453125 C 11.21875 -7.585938 11.007812 -6.863281 10.59375 -6.28125 C 10.175781 -5.707031 9.625 -5.28125 8.9375 -5 L 11.453125 -0.5625 C 11.484375 -0.488281 11.5 -0.425781 11.5 -0.375 C 11.5 -0.28125 11.457031 -0.191406 11.375 -0.109375 C 11.300781 -0.0351562 11.21875 0 11.125 0 L 9.140625 0 C 8.929688 0 8.769531 -0.0546875 8.65625 -0.171875 C 8.550781 -0.285156 8.476562 -0.390625 8.4375 -0.484375 L 6.265625 -4.53125 L 4.125 -4.53125 L 4.125 -0.4375 C 4.125 -0.3125 4.082031 -0.207031 4 -0.125 C 3.914062 -0.0390625 3.8125 0 3.6875 0 Z M 4.125 -6.78125 L 6.421875 -6.78125 C 7.054688 -6.78125 7.53125 -6.925781 7.84375 -7.21875 C 8.15625 -7.519531 8.3125 -7.9375 8.3125 -8.46875 C 8.3125 -9 8.15625 -9.414062 7.84375 -9.71875 C 7.539062 -10.03125 7.066406 -10.1875 6.421875 -10.1875 L 4.125 -10.1875 Z M 4.125 -6.78125 "/></g></g></g><g fill="#000000" fill-opacity="1"><g transform="translate(258.040137, 286.820607)"><g><path d="M 6.234375 0.171875 C 5.160156 0.171875 4.234375 -0.00390625 3.453125 -0.359375 C 2.671875 -0.710938 2.0625 -1.242188 1.625 -1.953125 C 1.1875 -2.671875 0.953125 -3.570312 0.921875 -4.65625 C 0.910156 -5.164062 0.90625 -5.671875 0.90625 -6.171875 C 0.90625 -6.671875 0.910156 -7.179688 0.921875 -7.703125 C 0.953125 -8.765625 1.1875 -9.660156 1.625 -10.390625 C 2.070312 -11.117188 2.6875 -11.664062 3.46875 -12.03125 C 4.257812 -12.394531 5.179688 -12.578125 6.234375 -12.578125 C 7.273438 -12.578125 8.1875 -12.394531 8.96875 -12.03125 C 9.757812 -11.664062 10.378906 -11.117188 10.828125 -10.390625 C 11.273438 -9.660156 11.515625 -8.765625 11.546875 -7.703125 C 11.578125 -7.179688 11.59375 -6.671875 11.59375 -6.171875 C 11.59375 -5.671875 11.578125 -5.164062 11.546875 -4.65625 C 11.515625 -3.570312 11.273438 -2.671875 10.828125 -1.953125 C 10.390625 -1.242188 9.78125 -0.710938 9 -0.359375 C 8.21875 -0.00390625 7.296875 0.171875 6.234375 0.171875 Z M 6.234375 -2.125 C 6.921875 -2.125 7.484375 -2.328125 7.921875 -2.734375 C 8.367188 -3.148438 8.601562 -3.820312 8.625 -4.75 C 8.65625 -5.269531 8.671875 -5.753906 8.671875 -6.203125 C 8.671875 -6.660156 8.65625 -7.144531 8.625 -7.65625 C 8.613281 -8.269531 8.5 -8.769531 8.28125 -9.15625 C 8.070312 -9.550781 7.789062 -9.835938 7.4375 -10.015625 C 7.09375 -10.191406 6.691406 -10.28125 6.234375 -10.28125 C 5.785156 -10.28125 5.382812 -10.191406 5.03125 -10.015625 C 4.675781 -9.835938 4.390625 -9.550781 4.171875 -9.15625 C 3.960938 -8.769531 3.847656 -8.269531 3.828125 -7.65625 C 3.816406 -7.144531 3.8125 -6.660156 3.8125 -6.203125 C 3.8125 -5.753906 3.816406 -5.269531 3.828125 -4.75 C 3.859375 -3.820312 4.09375 -3.148438 4.53125 -2.734375 C 4.96875 -2.328125 5.535156 -2.125 6.234375 -2.125 Z M 6.234375 -2.125 "/></g></g></g><g clip-path="url(#9f30a0e2a2)"><path fill="#d33226" d="M 232.488281 124.804688 C 237.054688 117.035156 239.675781 108.003906 239.675781 98.339844 C 239.675781 69.496094 216.320312 46.140625 187.476562 46.140625 C 158.632812 46.140625 135.273438 69.546875 135.273438 98.339844 C 135.273438 108.003906 137.898438 117.035156 142.460938 124.804688 L 142.753906 125.242188 C 142.800781 125.339844 142.851562 125.4375 142.898438 125.53125 L 168.390625 167.972656 C 172.421875 174.722656 179.65625 178.851562 187.476562 178.851562 C 195.292969 178.851562 202.578125 174.722656 206.558594 167.972656 L 232.050781 125.53125 C 232.101562 125.4375 232.148438 125.386719 232.195312 125.289062 Z M 232.488281 124.804688 " fill-opacity="1" fill-rule="nonzero"/></g><path fill="#f9ab3a" d="M 187.378906 55.996094 L 186.988281 97.515625 L 159.164062 69.691406 C 158.4375 68.960938 157.273438 69.011719 156.589844 69.738281 C 149.597656 77.558594 145.519531 88.046875 146.054688 99.457031 C 147.074219 119.65625 163.875 137.042969 184.027344 138.59375 C 208.402344 140.539062 228.75 121.308594 228.75 97.320312 C 228.796875 74.496094 210.25 55.996094 187.378906 55.996094 Z M 187.378906 55.996094 " fill-opacity="1" fill-rule="nonzero"/><path fill="#653b39" d="M 217.339844 67.410156 C 209.328125 59.394531 198.691406 55.027344 187.378906 55.027344 C 187.378906 55.027344 187.328125 55.027344 187.328125 55.027344 L 186.941406 55.027344 L 186.359375 55.609375 L 185.96875 55.609375 L 185.96875 95.136719 L 159.894531 69.011719 C 159.359375 68.476562 158.632812 68.183594 157.855469 68.183594 C 157.078125 68.183594 156.398438 68.523438 155.863281 69.109375 C 148.335938 77.460938 144.550781 88.289062 145.082031 99.554688 C 145.570312 109.558594 149.890625 119.21875 157.175781 126.746094 C 164.457031 134.273438 173.976562 138.886719 183.980469 139.664062 C 185.144531 139.761719 186.308594 139.808594 187.476562 139.808594 C 198.15625 139.808594 208.257812 135.875 216.171875 128.542969 C 224.816406 120.53125 229.769531 109.21875 229.769531 97.417969 C 229.769531 86.054688 225.351562 75.421875 217.339844 67.410156 Z M 212.53125 121.601562 C 218.261719 115.53125 221.902344 107.421875 222.195312 98.535156 L 227.777344 98.535156 C 227.488281 108.585938 223.40625 118.25 216.464844 125.484375 Z M 211.171875 74.59375 C 216.609375 80.375 220.007812 88.046875 220.203125 96.542969 L 189.175781 96.542969 Z M 188.007812 94.988281 L 188.300781 64.15625 C 196.605469 64.496094 204.128906 67.84375 209.8125 73.1875 Z M 184.464844 98.535156 L 162.808594 120.191406 C 157.417969 114.511719 154.066406 106.886719 153.773438 98.535156 Z M 153.726562 96.542969 C 153.921875 88.335938 157.078125 80.617188 162.710938 74.644531 L 184.609375 96.542969 Z M 186.019531 99.796875 L 186.019531 130.632812 C 177.570312 130.390625 169.945312 126.988281 164.214844 121.601562 Z M 187.960938 100.136719 L 209.714844 121.601562 C 203.984375 126.988281 196.359375 130.339844 187.960938 130.582031 Z M 189.125 98.535156 L 220.203125 98.535156 C 219.910156 106.933594 216.511719 114.511719 211.121094 120.238281 Z M 227.777344 96.542969 L 222.195312 96.542969 C 222 87.511719 218.359375 79.304688 212.578125 73.1875 L 216.464844 69.300781 C 223.601562 76.683594 227.585938 86.296875 227.777344 96.542969 Z M 215.054688 67.941406 L 211.21875 71.777344 C 205.199219 66.097656 197.1875 62.503906 188.347656 62.164062 L 188.398438 56.96875 C 198.351562 57.210938 207.773438 61.097656 215.054688 67.941406 Z M 157.320312 70.417969 C 157.464844 70.273438 157.660156 70.175781 157.902344 70.175781 C 158.097656 70.175781 158.339844 70.273438 158.484375 70.417969 L 161.351562 73.285156 C 155.378906 79.644531 151.980469 87.851562 151.785156 96.59375 L 147.074219 96.59375 C 147.21875 86.878906 150.8125 77.703125 157.320312 70.417969 Z M 147.027344 98.535156 L 151.785156 98.535156 C 152.074219 107.46875 155.667969 115.53125 161.398438 121.601562 L 158.144531 124.851562 C 151.445312 117.761719 147.511719 108.730469 147.074219 99.457031 C 147.027344 99.117188 147.027344 98.824219 147.027344 98.535156 Z M 159.503906 126.261719 L 162.808594 122.960938 C 168.925781 128.738281 177.035156 132.332031 186.019531 132.574219 L 186.019531 137.722656 C 185.386719 137.722656 184.753906 137.671875 184.125 137.625 C 175.042969 136.945312 166.351562 132.914062 159.503906 126.261719 Z M 187.960938 137.769531 L 187.960938 132.621094 C 196.894531 132.378906 205.054688 128.785156 211.121094 123.007812 L 215.007812 126.84375 C 214.910156 126.890625 214.863281 126.988281 214.765625 127.039062 C 207.382812 133.933594 197.964844 137.671875 187.960938 137.769531 Z M 187.960938 137.769531 " fill-opacity="1" fill-rule="nonzero"/><path fill="#653b39" d="M 199.828125 114.570312 C 199.9375 114.828125 200.019531 115.09375 200.074219 115.371094 C 200.128906 115.644531 200.15625 115.921875 200.15625 116.203125 C 200.15625 116.484375 200.128906 116.761719 200.074219 117.039062 C 200.019531 117.3125 199.9375 117.582031 199.828125 117.839844 C 199.722656 118.097656 199.589844 118.34375 199.433594 118.578125 C 199.277344 118.8125 199.101562 119.027344 198.902344 119.226562 C 198.707031 119.425781 198.488281 119.601562 198.257812 119.757812 C 198.023438 119.914062 197.777344 120.042969 197.515625 120.152344 C 197.257812 120.257812 196.992188 120.339844 196.714844 120.394531 C 196.441406 120.449219 196.164062 120.476562 195.882812 120.476562 C 195.601562 120.476562 195.324219 120.449219 195.046875 120.394531 C 194.773438 120.339844 194.507812 120.257812 194.246094 120.152344 C 193.988281 120.042969 193.742188 119.914062 193.507812 119.757812 C 193.273438 119.601562 193.058594 119.425781 192.859375 119.226562 C 192.664062 119.027344 192.484375 118.8125 192.328125 118.578125 C 192.171875 118.34375 192.042969 118.097656 191.933594 117.839844 C 191.828125 117.582031 191.746094 117.3125 191.691406 117.039062 C 191.636719 116.761719 191.609375 116.484375 191.609375 116.203125 C 191.609375 115.921875 191.636719 115.644531 191.691406 115.371094 C 191.746094 115.09375 191.828125 114.828125 191.933594 114.570312 C 192.042969 114.308594 192.171875 114.0625 192.328125 113.828125 C 192.484375 113.597656 192.664062 113.382812 192.859375 113.183594 C 193.058594 112.984375 193.273438 112.808594 193.507812 112.652344 C 193.742188 112.496094 193.988281 112.363281 194.246094 112.257812 C 194.507812 112.148438 194.773438 112.066406 195.046875 112.011719 C 195.324219 111.957031 195.601562 111.929688 195.882812 111.929688 C 196.164062 111.929688 196.441406 111.957031 196.714844 112.011719 C 196.992188 112.066406 197.257812 112.148438 197.515625 112.257812 C 197.777344 112.363281 198.023438 112.496094 198.257812 112.652344 C 198.488281 112.808594 198.707031 112.984375 198.902344 113.183594 C 199.101562 113.382812 199.277344 113.597656 199.433594 113.828125 C 199.589844 114.0625 199.722656 114.308594 199.828125 114.570312 Z M 199.828125 114.570312 " fill-opacity="1" fill-rule="nonzero"/><path fill="#653b39" d="M 195.246094 123.980469 C 194.515625 123.980469 193.933594 124.5625 193.933594 125.289062 C 193.933594 126.019531 194.515625 126.601562 195.246094 126.601562 C 195.972656 126.601562 196.554688 126.019531 196.554688 125.289062 C 196.554688 124.5625 195.972656 123.980469 195.246094 123.980469 Z M 195.246094 123.980469 " fill-opacity="1" fill-rule="nonzero"/><path fill="#653b39" d="M 203.449219 102.371094 C 201.75 104.070312 201.75 106.742188 203.449219 108.441406 C 205.148438 110.140625 207.820312 110.140625 209.519531 108.441406 C 211.21875 106.742188 211.21875 104.070312 209.519531 102.371094 C 207.820312 100.671875 205.101562 100.671875 203.449219 102.371094 Z M 203.449219 102.371094 " fill-opacity="1" fill-rule="nonzero"/><path fill="#653b39" d="M 213.40625 111.355469 C 212.871094 110.820312 212.046875 110.820312 211.558594 111.355469 C 211.027344 111.886719 211.027344 112.714844 211.558594 113.199219 C 212.09375 113.734375 212.917969 113.734375 213.40625 113.199219 C 213.890625 112.664062 213.890625 111.839844 213.40625 111.355469 Z M 213.40625 111.355469 " fill-opacity="1" fill-rule="nonzero"/><path fill="#653b39" d="M 209.988281 88.65625 C 210.054688 88.929688 210.089844 89.207031 210.101562 89.488281 C 210.109375 89.769531 210.09375 90.046875 210.046875 90.324219 C 210.003906 90.601562 209.933594 90.871094 209.832031 91.132812 C 209.734375 91.394531 209.613281 91.648438 209.464844 91.886719 C 209.316406 92.125 209.148438 92.347656 208.957031 92.550781 C 208.765625 92.757812 208.554688 92.941406 208.328125 93.105469 C 208.101562 93.269531 207.859375 93.410156 207.605469 93.527344 C 207.347656 93.644531 207.085938 93.734375 206.8125 93.796875 C 206.539062 93.863281 206.261719 93.898438 205.980469 93.910156 C 205.703125 93.917969 205.421875 93.902344 205.144531 93.855469 C 204.867188 93.8125 204.597656 93.742188 204.335938 93.644531 C 204.074219 93.542969 203.824219 93.421875 203.582031 93.273438 C 203.34375 93.125 203.125 92.957031 202.917969 92.765625 C 202.710938 92.574219 202.527344 92.367188 202.363281 92.136719 C 202.199219 91.910156 202.058594 91.667969 201.941406 91.414062 C 201.828125 91.160156 201.734375 90.894531 201.671875 90.621094 C 201.605469 90.347656 201.570312 90.070312 201.558594 89.789062 C 201.550781 89.511719 201.566406 89.230469 201.613281 88.953125 C 201.65625 88.679688 201.730469 88.40625 201.828125 88.144531 C 201.925781 87.882812 202.046875 87.632812 202.195312 87.394531 C 202.34375 87.152344 202.511719 86.933594 202.703125 86.726562 C 202.894531 86.523438 203.105469 86.335938 203.332031 86.171875 C 203.558594 86.007812 203.800781 85.867188 204.054688 85.75 C 204.3125 85.636719 204.574219 85.542969 204.847656 85.480469 C 205.121094 85.414062 205.398438 85.378906 205.679688 85.367188 C 205.957031 85.359375 206.238281 85.375 206.515625 85.421875 C 206.792969 85.464844 207.0625 85.539062 207.324219 85.636719 C 207.585938 85.734375 207.835938 85.855469 208.078125 86.003906 C 208.316406 86.152344 208.539062 86.320312 208.742188 86.511719 C 208.949219 86.703125 209.132812 86.914062 209.296875 87.140625 C 209.460938 87.367188 209.601562 87.609375 209.71875 87.863281 C 209.835938 88.121094 209.925781 88.382812 209.988281 88.65625 Z M 209.988281 88.65625 " fill-opacity="1" fill-rule="nonzero"/><path fill="#653b39" d="M 216.222656 90.28125 C 216.222656 90.453125 216.1875 90.621094 216.121094 90.78125 C 216.054688 90.941406 215.960938 91.082031 215.835938 91.207031 C 215.714844 91.328125 215.574219 91.425781 215.414062 91.492188 C 215.25 91.558594 215.085938 91.589844 214.910156 91.589844 C 214.738281 91.589844 214.570312 91.558594 214.410156 91.492188 C 214.25 91.425781 214.105469 91.328125 213.984375 91.207031 C 213.859375 91.082031 213.765625 90.941406 213.699219 90.78125 C 213.632812 90.621094 213.597656 90.453125 213.597656 90.28125 C 213.597656 90.105469 213.632812 89.9375 213.699219 89.777344 C 213.765625 89.617188 213.859375 89.476562 213.984375 89.351562 C 214.105469 89.230469 214.25 89.132812 214.410156 89.066406 C 214.570312 89 214.738281 88.96875 214.910156 88.96875 C 215.085938 88.96875 215.25 89 215.414062 89.066406 C 215.574219 89.132812 215.714844 89.230469 215.835938 89.351562 C 215.960938 89.476562 216.054688 89.617188 216.121094 89.777344 C 216.1875 89.9375 216.222656 90.105469 216.222656 90.28125 Z M 216.222656 90.28125 " fill-opacity="1" fill-rule="nonzero"/><path fill="#653b39" d="M 199.273438 79.0625 C 199.273438 79.34375 199.246094 79.621094 199.191406 79.894531 C 199.136719 80.171875 199.058594 80.4375 198.949219 80.699219 C 198.84375 80.957031 198.710938 81.203125 198.554688 81.4375 C 198.398438 81.667969 198.222656 81.886719 198.023438 82.085938 C 197.824219 82.28125 197.609375 82.460938 197.375 82.617188 C 197.140625 82.769531 196.894531 82.902344 196.636719 83.011719 C 196.378906 83.117188 196.109375 83.199219 195.835938 83.253906 C 195.558594 83.308594 195.28125 83.335938 195 83.335938 C 194.722656 83.335938 194.441406 83.308594 194.167969 83.253906 C 193.894531 83.199219 193.625 83.117188 193.367188 83.011719 C 193.105469 82.902344 192.859375 82.769531 192.628906 82.617188 C 192.394531 82.460938 192.179688 82.28125 191.980469 82.085938 C 191.78125 81.886719 191.605469 81.667969 191.449219 81.4375 C 191.292969 81.203125 191.160156 80.957031 191.054688 80.699219 C 190.945312 80.4375 190.863281 80.171875 190.808594 79.894531 C 190.753906 79.621094 190.726562 79.34375 190.726562 79.0625 C 190.726562 78.78125 190.753906 78.503906 190.808594 78.230469 C 190.863281 77.953125 190.945312 77.6875 191.054688 77.425781 C 191.160156 77.167969 191.292969 76.921875 191.449219 76.6875 C 191.605469 76.457031 191.78125 76.238281 191.980469 76.039062 C 192.179688 75.84375 192.394531 75.664062 192.628906 75.507812 C 192.859375 75.355469 193.105469 75.222656 193.367188 75.113281 C 193.625 75.007812 193.894531 74.925781 194.167969 74.871094 C 194.441406 74.816406 194.722656 74.789062 195 74.789062 C 195.28125 74.789062 195.558594 74.816406 195.835938 74.871094 C 196.109375 74.925781 196.378906 75.007812 196.636719 75.113281 C 196.894531 75.222656 197.140625 75.355469 197.375 75.507812 C 197.609375 75.664062 197.824219 75.84375 198.023438 76.039062 C 198.222656 76.238281 198.398438 76.457031 198.554688 76.6875 C 198.710938 76.921875 198.84375 77.167969 198.949219 77.425781 C 199.058594 77.6875 199.136719 77.953125 199.191406 78.230469 C 199.246094 78.503906 199.273438 78.78125 199.273438 79.0625 Z M 199.273438 79.0625 " fill-opacity="1" fill-rule="nonzero"/><path fill="#653b39" d="M 203.207031 73.042969 C 203.207031 73.214844 203.175781 73.382812 203.109375 73.542969 C 203.042969 73.703125 202.945312 73.84375 202.824219 73.96875 C 202.699219 74.089844 202.558594 74.1875 202.398438 74.253906 C 202.238281 74.320312 202.070312 74.351562 201.898438 74.351562 C 201.722656 74.351562 201.554688 74.320312 201.394531 74.253906 C 201.234375 74.1875 201.09375 74.089844 200.96875 73.96875 C 200.847656 73.84375 200.753906 73.703125 200.683594 73.542969 C 200.617188 73.382812 200.585938 73.214844 200.585938 73.042969 C 200.585938 72.867188 200.617188 72.699219 200.683594 72.539062 C 200.753906 72.378906 200.847656 72.238281 200.96875 72.113281 C 201.09375 71.992188 201.234375 71.894531 201.394531 71.828125 C 201.554688 71.761719 201.722656 71.730469 201.898438 71.730469 C 202.070312 71.730469 202.238281 71.761719 202.398438 71.828125 C 202.558594 71.894531 202.699219 71.992188 202.824219 72.113281 C 202.945312 72.238281 203.042969 72.378906 203.109375 72.539062 C 203.175781 72.699219 203.207031 72.867188 203.207031 73.042969 Z M 203.207031 73.042969 " fill-opacity="1" fill-rule="nonzero"/><path fill="#653b39" d="M 172.128906 89.015625 C 172.128906 89.296875 172.101562 89.574219 172.046875 89.851562 C 171.992188 90.125 171.914062 90.394531 171.804688 90.652344 C 171.699219 90.910156 171.566406 91.15625 171.410156 91.390625 C 171.253906 91.625 171.078125 91.839844 170.878906 92.039062 C 170.679688 92.238281 170.464844 92.414062 170.230469 92.570312 C 169.996094 92.726562 169.75 92.859375 169.492188 92.964844 C 169.234375 93.070312 168.964844 93.152344 168.691406 93.207031 C 168.414062 93.261719 168.136719 93.289062 167.855469 93.289062 C 167.578125 93.289062 167.300781 93.261719 167.023438 93.207031 C 166.75 93.152344 166.480469 93.070312 166.222656 92.964844 C 165.960938 92.859375 165.714844 92.726562 165.484375 92.570312 C 165.25 92.414062 165.035156 92.238281 164.835938 92.039062 C 164.636719 91.839844 164.460938 91.625 164.304688 91.390625 C 164.148438 91.15625 164.015625 90.910156 163.910156 90.652344 C 163.800781 90.394531 163.722656 90.125 163.667969 89.851562 C 163.613281 89.574219 163.585938 89.296875 163.585938 89.015625 C 163.585938 88.738281 163.613281 88.457031 163.667969 88.183594 C 163.722656 87.90625 163.800781 87.640625 163.910156 87.382812 C 164.015625 87.121094 164.148438 86.875 164.304688 86.644531 C 164.460938 86.410156 164.636719 86.195312 164.835938 85.996094 C 165.035156 85.796875 165.25 85.621094 165.484375 85.464844 C 165.714844 85.308594 165.960938 85.175781 166.222656 85.070312 C 166.480469 84.960938 166.75 84.878906 167.023438 84.824219 C 167.300781 84.769531 167.578125 84.742188 167.855469 84.742188 C 168.136719 84.742188 168.414062 84.769531 168.691406 84.824219 C 168.964844 84.878906 169.234375 84.960938 169.492188 85.070312 C 169.75 85.175781 169.996094 85.308594 170.230469 85.464844 C 170.464844 85.621094 170.679688 85.796875 170.878906 85.996094 C 171.078125 86.195312 171.253906 86.410156 171.410156 86.644531 C 171.566406 86.875 171.699219 87.121094 171.804688 87.382812 C 171.914062 87.640625 171.992188 87.90625 172.046875 88.183594 C 172.101562 88.457031 172.128906 88.738281 172.128906 89.015625 Z M 172.128906 89.015625 " fill-opacity="1" fill-rule="nonzero"/><path fill="#653b39" d="M 163.195312 82.171875 C 163.195312 82.34375 163.164062 82.511719 163.097656 82.671875 C 163.03125 82.832031 162.933594 82.972656 162.8125 83.097656 C 162.6875 83.21875 162.546875 83.316406 162.386719 83.382812 C 162.226562 83.449219 162.058594 83.480469 161.882812 83.480469 C 161.710938 83.480469 161.542969 83.449219 161.382812 83.382812 C 161.222656 83.316406 161.082031 83.21875 160.957031 83.097656 C 160.835938 82.972656 160.738281 82.832031 160.671875 82.671875 C 160.605469 82.511719 160.574219 82.34375 160.574219 82.171875 C 160.574219 81.996094 160.605469 81.828125 160.671875 81.667969 C 160.738281 81.507812 160.835938 81.367188 160.957031 81.242188 C 161.082031 81.121094 161.222656 81.027344 161.382812 80.957031 C 161.542969 80.890625 161.710938 80.859375 161.882812 80.859375 C 162.058594 80.859375 162.226562 80.890625 162.386719 80.957031 C 162.546875 81.027344 162.6875 81.121094 162.8125 81.242188 C 162.933594 81.367188 163.03125 81.507812 163.097656 81.667969 C 163.164062 81.828125 163.195312 81.996094 163.195312 82.171875 Z M 163.195312 82.171875 " fill-opacity="1" fill-rule="nonzero"/><path fill="#653b39" d="M 172.167969 103.179688 C 172.234375 103.453125 172.269531 103.730469 172.28125 104.011719 C 172.289062 104.292969 172.273438 104.570312 172.226562 104.847656 C 172.183594 105.125 172.113281 105.394531 172.011719 105.65625 C 171.914062 105.917969 171.792969 106.171875 171.644531 106.410156 C 171.496094 106.648438 171.328125 106.871094 171.136719 107.074219 C 170.945312 107.28125 170.734375 107.464844 170.507812 107.628906 C 170.28125 107.792969 170.039062 107.933594 169.785156 108.050781 C 169.527344 108.167969 169.265625 108.257812 168.992188 108.320312 C 168.71875 108.386719 168.441406 108.421875 168.160156 108.433594 C 167.882812 108.441406 167.601562 108.425781 167.324219 108.382812 C 167.046875 108.335938 166.777344 108.265625 166.515625 108.167969 C 166.253906 108.066406 166.003906 107.945312 165.761719 107.796875 C 165.523438 107.652344 165.304688 107.480469 165.097656 107.289062 C 164.890625 107.097656 164.707031 106.890625 164.542969 106.660156 C 164.378906 106.433594 164.238281 106.191406 164.121094 105.9375 C 164.007812 105.683594 163.914062 105.417969 163.851562 105.144531 C 163.785156 104.871094 163.75 104.59375 163.738281 104.316406 C 163.730469 104.035156 163.746094 103.753906 163.792969 103.480469 C 163.835938 103.203125 163.910156 102.933594 164.007812 102.667969 C 164.105469 102.40625 164.226562 102.15625 164.375 101.917969 C 164.523438 101.679688 164.691406 101.457031 164.882812 101.25 C 165.074219 101.046875 165.285156 100.859375 165.511719 100.695312 C 165.738281 100.53125 165.980469 100.390625 166.234375 100.277344 C 166.492188 100.160156 166.753906 100.070312 167.027344 100.003906 C 167.300781 99.941406 167.578125 99.902344 167.859375 99.890625 C 168.136719 99.882812 168.417969 99.898438 168.695312 99.945312 C 168.972656 99.988281 169.242188 100.0625 169.503906 100.160156 C 169.765625 100.257812 170.015625 100.378906 170.257812 100.527344 C 170.496094 100.675781 170.71875 100.84375 170.921875 101.035156 C 171.128906 101.226562 171.3125 101.4375 171.476562 101.664062 C 171.640625 101.890625 171.78125 102.132812 171.898438 102.386719 C 172.011719 102.644531 172.105469 102.90625 172.167969 103.179688 Z M 172.167969 103.179688 " fill-opacity="1" fill-rule="nonzero"/><path fill="#653b39" d="M 158.921875 102.226562 C 158.195312 102.226562 157.613281 102.808594 157.613281 103.535156 C 157.613281 104.265625 158.195312 104.847656 158.921875 104.847656 C 159.652344 104.847656 160.234375 104.265625 160.234375 103.535156 C 160.234375 102.808594 159.652344 102.226562 158.921875 102.226562 Z M 158.921875 102.226562 " fill-opacity="1" fill-rule="nonzero"/><path fill="#653b39" d="M 183.234375 112.558594 C 183.382812 112.796875 183.507812 113.046875 183.605469 113.3125 C 183.703125 113.574219 183.773438 113.84375 183.820312 114.121094 C 183.863281 114.398438 183.882812 114.675781 183.871094 114.957031 C 183.859375 115.238281 183.824219 115.515625 183.757812 115.789062 C 183.695312 116.0625 183.605469 116.324219 183.488281 116.578125 C 183.371094 116.835938 183.230469 117.078125 183.066406 117.304688 C 182.902344 117.53125 182.71875 117.742188 182.511719 117.933594 C 182.308594 118.125 182.085938 118.292969 181.847656 118.441406 C 181.609375 118.589844 181.359375 118.710938 181.09375 118.808594 C 180.832031 118.90625 180.5625 118.980469 180.285156 119.023438 C 180.007812 119.070312 179.730469 119.085938 179.449219 119.074219 C 179.167969 119.066406 178.890625 119.027344 178.617188 118.964844 C 178.34375 118.898438 178.082031 118.808594 177.828125 118.691406 C 177.570312 118.578125 177.328125 118.4375 177.101562 118.273438 C 176.875 118.109375 176.664062 117.921875 176.472656 117.71875 C 176.28125 117.511719 176.113281 117.289062 175.964844 117.050781 C 175.816406 116.8125 175.695312 116.5625 175.597656 116.300781 C 175.5 116.035156 175.425781 115.765625 175.382812 115.488281 C 175.335938 115.210938 175.320312 114.933594 175.332031 114.652344 C 175.339844 114.375 175.378906 114.097656 175.441406 113.824219 C 175.507812 113.550781 175.597656 113.285156 175.714844 113.03125 C 175.828125 112.777344 175.96875 112.535156 176.132812 112.308594 C 176.296875 112.078125 176.484375 111.871094 176.6875 111.679688 C 176.894531 111.488281 177.117188 111.316406 177.355469 111.171875 C 177.59375 111.023438 177.84375 110.898438 178.105469 110.800781 C 178.371094 110.703125 178.640625 110.632812 178.917969 110.585938 C 179.195312 110.542969 179.472656 110.523438 179.753906 110.535156 C 180.03125 110.546875 180.308594 110.582031 180.582031 110.648438 C 180.855469 110.710938 181.121094 110.800781 181.375 110.917969 C 181.628906 111.035156 181.871094 111.175781 182.097656 111.339844 C 182.328125 111.503906 182.535156 111.6875 182.726562 111.894531 C 182.917969 112.097656 183.089844 112.320312 183.234375 112.558594 Z M 183.234375 112.558594 " fill-opacity="1" fill-rule="nonzero"/><path fill="#653b39" d="M 171.789062 119.851562 C 171.257812 120.386719 171.257812 121.210938 171.789062 121.695312 C 172.324219 122.230469 173.148438 122.230469 173.636719 121.695312 C 174.121094 121.164062 174.167969 120.335938 173.636719 119.851562 C 173.148438 119.367188 172.324219 119.367188 171.789062 119.851562 Z M 171.789062 119.851562 " fill-opacity="1" fill-rule="nonzero"/><path fill="#f9ab3a" d="M 190.242188 38.613281 C 179.949219 38.90625 170.671875 41.476562 160.621094 50.800781 C 159.894531 51.480469 159.894531 52.648438 160.574219 53.375 L 163.148438 55.949219 C 163.777344 56.578125 164.796875 56.675781 165.476562 56.09375 C 165.574219 56.046875 165.671875 55.949219 165.769531 55.898438 L 171.597656 61.726562 C 172.617188 62.746094 173.148438 64.105469 173.148438 65.515625 L 173.148438 72.410156 C 173.148438 73.476562 174.023438 74.351562 175.09375 74.351562 C 176.160156 74.351562 177.035156 73.476562 177.035156 72.410156 L 177.035156 68.136719 C 177.035156 67.554688 177.519531 67.117188 178.054688 67.164062 C 178.589844 67.214844 178.976562 67.652344 178.976562 68.183594 L 178.78125 78.769531 C 178.78125 79.9375 179.707031 80.859375 180.824219 80.859375 C 181.9375 80.859375 182.863281 79.9375 182.863281 78.820312 L 182.863281 75.371094 C 182.863281 74.496094 183.929688 74.0625 184.5625 74.691406 L 186.890625 77.023438 C 188.058594 78.1875 190.097656 77.363281 190.097656 75.710938 L 190.097656 45.800781 C 190.242188 45.800781 190.339844 45.75 190.484375 45.75 C 191.359375 45.652344 192.039062 44.925781 192.039062 44.003906 L 192.039062 40.410156 C 192.089844 39.390625 191.261719 38.613281 190.242188 38.613281 Z M 190.242188 38.613281 " fill-opacity="1" fill-rule="nonzero"/><g clip-path="url(#b7b5379e63)"><path fill="#653b39" d="M 192.234375 38.417969 C 191.699219 37.886719 190.972656 37.59375 190.195312 37.640625 C 178.054688 37.933594 169.023438 41.671875 159.894531 50.074219 C 159.359375 50.558594 159.019531 51.285156 159.019531 52.015625 C 159.019531 52.792969 159.3125 53.519531 159.84375 54.054688 L 162.417969 56.628906 C 162.953125 57.164062 163.679688 57.453125 164.359375 57.453125 C 164.796875 57.453125 165.1875 57.355469 165.574219 57.164062 L 170.867188 62.40625 C 171.695312 63.230469 172.128906 64.347656 172.128906 65.515625 L 172.128906 72.410156 C 172.128906 74.011719 173.441406 75.371094 175.09375 75.371094 C 176.453125 75.371094 177.617188 74.449219 177.957031 73.1875 L 177.859375 78.722656 C 177.859375 79.546875 178.152344 80.324219 178.734375 80.90625 C 179.316406 81.492188 180.09375 81.832031 180.917969 81.832031 C 182.570312 81.832031 183.929688 80.46875 183.929688 78.820312 L 183.929688 75.421875 L 186.261719 77.75 C 187.085938 78.578125 188.300781 78.820312 189.417969 78.382812 C 190.535156 77.945312 191.214844 76.925781 191.214844 75.710938 L 191.214844 46.625 C 192.378906 46.285156 193.15625 45.21875 193.15625 44.003906 L 193.15625 40.410156 C 193.058594 39.679688 192.769531 38.953125 192.234375 38.417969 Z M 189.125 75.664062 C 189.125 76.199219 188.6875 76.441406 188.589844 76.488281 C 188.445312 76.539062 188.007812 76.683594 187.621094 76.292969 L 185.289062 73.964844 C 184.707031 73.382812 183.882812 73.234375 183.152344 73.527344 C 182.425781 73.816406 181.9375 74.546875 181.9375 75.371094 L 181.9375 78.820312 C 181.9375 79.402344 181.453125 79.886719 180.871094 79.886719 C 180.578125 79.886719 180.335938 79.789062 180.144531 79.597656 C 179.949219 79.402344 179.851562 79.109375 179.851562 78.820312 L 180.046875 68.234375 C 180.046875 67.164062 179.269531 66.292969 178.199219 66.242188 C 178.152344 66.242188 178.101562 66.242188 178.101562 66.242188 C 177.617188 66.242188 177.132812 66.4375 176.742188 66.777344 C 176.355469 67.164062 176.113281 67.652344 176.113281 68.234375 L 176.113281 72.507812 C 176.113281 73.042969 175.675781 73.476562 175.140625 73.476562 C 174.605469 73.476562 174.167969 73.042969 174.167969 72.507812 L 174.167969 65.515625 C 174.167969 63.816406 173.488281 62.210938 172.324219 61.046875 L 167.273438 55.996094 C 167.273438 55.996094 167.324219 55.949219 167.324219 55.949219 C 167.324219 55.949219 167.371094 55.949219 167.371094 55.898438 C 167.761719 55.609375 168.195312 55.316406 168.632812 55.027344 C 168.683594 55.027344 168.683594 54.976562 168.730469 54.976562 C 169.167969 54.6875 169.605469 54.441406 170.042969 54.152344 C 174.265625 51.578125 179.316406 49.394531 184.269531 48.035156 C 184.320312 48.035156 184.320312 48.035156 184.367188 48.035156 C 184.804688 47.886719 185.289062 47.789062 185.726562 47.695312 C 185.824219 47.644531 185.96875 47.644531 186.066406 47.597656 C 186.40625 47.5 186.746094 47.449219 187.085938 47.355469 C 187.28125 47.304688 187.523438 47.257812 187.71875 47.207031 C 187.910156 47.160156 188.058594 47.160156 188.25 47.109375 C 188.589844 47.0625 188.882812 47.015625 189.222656 46.964844 L 189.222656 75.664062 Z M 191.117188 44.003906 C 191.117188 44.390625 190.824219 44.683594 190.4375 44.730469 C 190.339844 44.730469 190.292969 44.78125 190.195312 44.78125 L 190.046875 44.78125 C 190 44.78125 189.953125 44.78125 189.902344 44.828125 C 189.417969 44.878906 188.980469 44.972656 188.496094 45.023438 C 188.496094 45.023438 188.445312 45.023438 188.445312 45.023438 C 181.550781 46.1875 173.925781 49.246094 168.003906 53.082031 C 167.953125 53.132812 167.855469 53.179688 167.808594 53.230469 C 167.515625 53.421875 167.226562 53.617188 166.933594 53.8125 C 166.742188 53.957031 166.546875 54.054688 166.402344 54.199219 C 166.207031 54.347656 166.011719 54.492188 165.816406 54.636719 C 165.625 54.785156 165.429688 54.929688 165.285156 55.027344 L 164.992188 55.269531 C 164.699219 55.511719 164.265625 55.464844 163.972656 55.171875 L 161.398438 52.597656 C 161.253906 52.453125 161.15625 52.257812 161.15625 52.015625 C 161.15625 51.820312 161.253906 51.625 161.398438 51.480469 C 169.992188 43.46875 178.6875 39.925781 190.292969 39.632812 C 190.484375 39.632812 190.726562 39.730469 190.875 39.875 C 191.019531 40.019531 191.117188 40.214844 191.117188 40.457031 Z M 191.117188 44.003906 " fill-opacity="1" fill-rule="nonzero"/></g><path fill="#653b39" d="M 183.414062 56.292969 C 183.488281 56.601562 183.527344 56.914062 183.539062 57.230469 C 183.550781 57.542969 183.53125 57.859375 183.480469 58.167969 C 183.429688 58.480469 183.347656 58.785156 183.238281 59.082031 C 183.128906 59.375 182.992188 59.660156 182.824219 59.925781 C 182.660156 60.195312 182.46875 60.445312 182.253906 60.675781 C 182.039062 60.90625 181.800781 61.113281 181.546875 61.300781 C 181.289062 61.484375 181.019531 61.640625 180.730469 61.773438 C 180.445312 61.902344 180.148438 62.003906 179.839844 62.078125 C 179.53125 62.152344 179.222656 62.191406 178.90625 62.203125 C 178.589844 62.214844 178.277344 62.195312 177.964844 62.144531 C 177.652344 62.09375 177.351562 62.015625 177.054688 61.902344 C 176.757812 61.792969 176.476562 61.65625 176.207031 61.488281 C 175.941406 61.324219 175.691406 61.132812 175.457031 60.917969 C 175.226562 60.703125 175.019531 60.46875 174.835938 60.210938 C 174.652344 59.953125 174.492188 59.683594 174.363281 59.394531 C 174.230469 59.109375 174.128906 58.8125 174.054688 58.503906 C 173.984375 58.195312 173.941406 57.886719 173.929688 57.570312 C 173.917969 57.253906 173.9375 56.941406 173.988281 56.628906 C 174.039062 56.316406 174.121094 56.015625 174.230469 55.71875 C 174.339844 55.421875 174.480469 55.140625 174.644531 54.871094 C 174.8125 54.605469 175.003906 54.355469 175.21875 54.125 C 175.433594 53.890625 175.667969 53.683594 175.925781 53.5 C 176.179688 53.316406 176.453125 53.15625 176.738281 53.027344 C 177.027344 52.894531 177.324219 52.792969 177.628906 52.722656 C 177.9375 52.648438 178.25 52.605469 178.5625 52.59375 C 178.878906 52.585938 179.195312 52.605469 179.503906 52.65625 C 179.816406 52.703125 180.121094 52.785156 180.414062 52.894531 C 180.710938 53.007812 180.992188 53.144531 181.261719 53.308594 C 181.53125 53.476562 181.78125 53.667969 182.011719 53.882812 C 182.242188 54.097656 182.449219 54.332031 182.636719 54.589844 C 182.820312 54.84375 182.976562 55.117188 183.109375 55.402344 C 183.238281 55.691406 183.339844 55.988281 183.414062 56.292969 Z M 183.414062 56.292969 " fill-opacity="1" fill-rule="nonzero"/><path fill="#653b39" d="M 186.628906 66.21875 C 186.710938 66.554688 186.722656 66.894531 186.664062 67.238281 C 186.609375 67.582031 186.492188 67.902344 186.308594 68.199219 C 186.125 68.492188 185.894531 68.742188 185.609375 68.945312 C 185.328125 69.148438 185.019531 69.292969 184.679688 69.371094 C 184.339844 69.453125 184 69.464844 183.65625 69.40625 C 183.3125 69.351562 182.996094 69.234375 182.699219 69.050781 C 182.402344 68.867188 182.152344 68.636719 181.949219 68.351562 C 181.746094 68.070312 181.605469 67.761719 181.523438 67.421875 C 181.445312 67.082031 181.433594 66.742188 181.488281 66.398438 C 181.542969 66.054688 181.664062 65.738281 181.847656 65.441406 C 182.03125 65.144531 182.261719 64.894531 182.542969 64.691406 C 182.824219 64.488281 183.136719 64.347656 183.476562 64.265625 C 183.8125 64.1875 184.152344 64.175781 184.496094 64.230469 C 184.839844 64.285156 185.160156 64.40625 185.457031 64.589844 C 185.75 64.773438 186 65.003906 186.203125 65.285156 C 186.40625 65.566406 186.550781 65.878906 186.628906 66.21875 Z M 186.628906 66.21875 " fill-opacity="1" fill-rule="nonzero"/><path fill="#653b39" d="M 187.910156 51.820312 C 187.910156 51.996094 187.878906 52.164062 187.8125 52.324219 C 187.746094 52.484375 187.652344 52.625 187.527344 52.75 C 187.40625 52.871094 187.261719 52.964844 187.101562 53.03125 C 186.941406 53.097656 186.773438 53.132812 186.601562 53.132812 C 186.425781 53.132812 186.257812 53.097656 186.097656 53.03125 C 185.9375 52.964844 185.796875 52.871094 185.671875 52.75 C 185.550781 52.625 185.457031 52.484375 185.390625 52.324219 C 185.324219 52.164062 185.289062 51.996094 185.289062 51.820312 C 185.289062 51.648438 185.324219 51.480469 185.390625 51.320312 C 185.457031 51.160156 185.550781 51.015625 185.671875 50.894531 C 185.796875 50.769531 185.9375 50.675781 186.097656 50.609375 C 186.257812 50.542969 186.425781 50.511719 186.601562 50.511719 C 186.773438 50.511719 186.941406 50.542969 187.101562 50.609375 C 187.261719 50.675781 187.40625 50.769531 187.527344 50.894531 C 187.652344 51.015625 187.746094 51.160156 187.8125 51.320312 C 187.878906 51.480469 187.910156 51.648438 187.910156 51.820312 Z M 187.910156 51.820312 " fill-opacity="1" fill-rule="nonzero"/></svg>