<svg xmlns="http://www.w3.org/2000/svg" xmlns:xlink="http://www.w3.org/1999/xlink" width="332" zoomAndPan="magnify" viewBox="0 0 249 188.249992" height="251" preserveAspectRatio="xMidYMid meet" version="1.0"><defs><clipPath id="c26367b05b"><path d="M 4 4 L 245 4 L 245 185.167969 L 4 185.167969 Z M 4 4 " clip-rule="nonzero"/></clipPath></defs><g clip-path="url(#c26367b05b)"><path fill="#000000" d="M 244.292969 128.269531 L 229.167969 51.84375 C 228.035156 46.089844 224.738281 41.132812 219.867188 37.882812 C 215 34.632812 209.175781 33.46875 203.429688 34.605469 L 201.757812 34.941406 L 196.9375 20 C 193.226562 8.492188 180.886719 2.144531 169.394531 5.859375 L 19.34375 54.34375 C 13.78125 56.152344 9.246094 59.996094 6.59375 65.207031 C 3.9375 70.421875 3.449219 76.355469 5.253906 81.929688 L 29.136719 156.085938 C 31.890625 164.628906 39.390625 170.304688 47.761719 171.15625 C 51.035156 179.671875 59.28125 185.167969 68.195312 185.167969 C 69.585938 185.167969 71.027344 185.039062 72.445312 184.753906 L 227.109375 154.046875 C 232.855469 152.914062 237.800781 149.609375 241.046875 144.734375 C 244.265625 139.855469 245.425781 134 244.292969 128.269531 Z M 203.996094 37.390625 C 208.996094 36.410156 214.070312 37.417969 218.296875 40.257812 C 222.523438 43.09375 225.40625 47.402344 226.386719 52.410156 L 228.035156 60.71875 L 211.160156 64.097656 L 202.65625 37.675781 Z M 7.929688 81.050781 C 6.359375 76.199219 6.796875 71.039062 9.117188 66.5 C 11.4375 61.957031 15.378906 58.601562 20.222656 57.027344 L 170.296875 8.570312 C 172.230469 7.949219 174.1875 7.640625 176.121094 7.640625 C 184.160156 7.640625 191.65625 12.800781 194.257812 20.878906 L 196.859375 28.953125 L 10.585938 89.308594 Z M 50.082031 168.421875 C 49.796875 168.421875 49.515625 168.421875 49.230469 168.394531 C 49.207031 168.394531 49.207031 168.394531 49.179688 168.394531 C 41.425781 168.085938 34.3125 163 31.789062 155.183594 L 18.03125 112.453125 L 204.308594 52.101562 L 218.117188 95.011719 C 218.269531 95.476562 218.398438 95.9375 218.503906 96.378906 C 218.554688 96.53125 218.582031 96.714844 218.632812 96.867188 C 218.65625 96.945312 218.65625 97.023438 218.683594 97.101562 C 218.734375 97.359375 218.785156 97.589844 218.8125 97.847656 C 220.175781 106.339844 215.617188 114.800781 207.707031 118.3125 C 207.683594 118.3125 207.683594 118.335938 207.65625 118.335938 C 207.425781 118.441406 207.191406 118.542969 206.960938 118.621094 C 206.882812 118.644531 206.832031 118.671875 206.753906 118.699219 C 206.546875 118.773438 206.367188 118.828125 206.160156 118.902344 C 206.058594 118.929688 205.957031 118.980469 205.828125 119.007812 L 55.75 167.464844 C 55.441406 167.570312 55.15625 167.644531 54.847656 167.722656 C 54.769531 167.75 54.695312 167.75 54.617188 167.773438 C 54.382812 167.828125 54.152344 167.878906 53.945312 167.929688 C 53.871094 167.957031 53.765625 167.957031 53.6875 167.980469 C 53.457031 168.03125 53.25 168.058594 53.019531 168.109375 C 52.941406 168.136719 52.863281 168.136719 52.789062 168.136719 C 52.554688 168.164062 52.324219 168.214844 52.089844 168.238281 C 52.015625 168.238281 51.960938 168.265625 51.886719 168.265625 C 51.628906 168.292969 51.371094 168.316406 51.136719 168.316406 C 51.085938 168.316406 51.035156 168.316406 50.984375 168.316406 C 50.726562 168.34375 50.441406 168.34375 50.183594 168.34375 C 50.160156 168.421875 50.132812 168.421875 50.082031 168.421875 Z M 238.652344 143.132812 C 235.816406 147.363281 231.515625 150.253906 226.515625 151.234375 L 71.851562 181.941406 C 63.171875 183.667969 54.488281 179.128906 50.855469 171.234375 C 51.394531 171.207031 51.9375 171.15625 52.453125 171.105469 C 52.453125 171.105469 52.453125 171.105469 52.476562 171.105469 C 52.734375 171.078125 52.992188 171.027344 53.25 171 C 53.300781 171 53.355469 170.976562 53.40625 170.976562 C 53.613281 170.949219 53.816406 170.898438 54.023438 170.871094 C 54.101562 170.84375 54.179688 170.84375 54.253906 170.820312 C 54.4375 170.769531 54.640625 170.742188 54.824219 170.691406 C 54.898438 170.664062 54.976562 170.664062 55.054688 170.640625 C 55.261719 170.585938 55.441406 170.535156 55.648438 170.484375 C 55.722656 170.457031 55.777344 170.457031 55.851562 170.433594 C 56.109375 170.355469 56.367188 170.277344 56.652344 170.199219 L 206.730469 121.742188 C 207.0625 121.640625 207.398438 121.511719 207.734375 121.382812 C 207.734375 121.382812 207.757812 121.382812 207.757812 121.355469 C 208.070312 121.253906 208.351562 121.125 208.660156 120.996094 C 208.710938 120.96875 208.765625 120.941406 208.816406 120.941406 C 209.074219 120.839844 209.304688 120.710938 209.5625 120.605469 C 209.691406 120.554688 209.820312 120.476562 209.921875 120.425781 C 210.105469 120.347656 210.257812 120.246094 210.414062 120.167969 C 210.671875 120.039062 210.902344 119.882812 211.160156 119.753906 C 211.1875 119.730469 211.238281 119.703125 211.261719 119.679688 C 214.742188 117.589844 217.574219 114.570312 219.480469 110.878906 C 221.363281 107.191406 222.160156 103.136719 221.828125 99.085938 C 221.828125 98.984375 221.800781 98.882812 221.800781 98.777344 C 221.773438 98.546875 221.75 98.339844 221.722656 98.105469 C 221.699219 97.875 221.671875 97.640625 221.621094 97.382812 C 221.59375 97.308594 221.59375 97.203125 221.570312 97.125 C 221.515625 96.84375 221.464844 96.53125 221.386719 96.25 C 221.386719 96.222656 221.363281 96.199219 221.363281 96.144531 C 221.207031 95.476562 221.027344 94.777344 220.820312 94.109375 L 218.65625 87.371094 L 232.75 84.558594 L 241.511719 128.785156 C 242.488281 133.816406 241.484375 138.902344 238.652344 143.132812 Z M 238.652344 143.132812 " fill-opacity="1" fill-rule="nonzero"/></g><path fill="#000000" d="M 28.058594 123.085938 L 124.238281 90.648438 L 125.140625 93.335938 L 28.964844 125.777344 Z M 28.058594 123.085938 " fill-opacity="1" fill-rule="nonzero"/><path fill="#000000" d="M 32.578125 136.625 L 165.285156 92.9375 L 166.171875 95.636719 L 33.460938 139.320312 Z M 32.578125 136.625 " fill-opacity="1" fill-rule="nonzero"/></svg>